<mxfile host="65bd71144e" scale="5" border="0">
    <diagram id="_MDxHrWeglGLCnqel5xq" name="Page-1">
        <mxGraphModel dx="896" dy="623" grid="1" gridSize="10" guides="1" tooltips="1" connect="1" arrows="1" fold="1" page="1" pageScale="1" pageWidth="850" pageHeight="1100" math="0" shadow="0">
            <root>
                <mxCell id="0"/>
                <mxCell id="1" parent="0"/>
                <mxCell id="11" style="edgeStyle=none;html=1;exitX=1;exitY=0.5;exitDx=0;exitDy=0;entryX=0;entryY=0.5;entryDx=0;entryDy=0;fontFamily=CMU;fontSource=https%3A%2F%2Ffontlibrary.org%2F%2Fface%2Fcmu-serif;strokeColor=#009900;strokeWidth=2;" parent="1" source="2" target="4" edge="1">
                    <mxGeometry relative="1" as="geometry">
                        <Array as="points">
                            <mxPoint x="250" y="310"/>
                            <mxPoint x="250" y="430"/>
                        </Array>
                    </mxGeometry>
                </mxCell>
                <mxCell id="2" value="Design" style="shape=step;perimeter=stepPerimeter;whiteSpace=wrap;html=1;fixedSize=1;fontFamily=CMU;fontSource=https%3A%2F%2Ffontlibrary.org%2F%2Fface%2Fcmu-serif;fontStyle=1;fillColor=#fff2cc;strokeColor=#d6b656;" parent="1" vertex="1">
                    <mxGeometry x="80" y="280" width="150" height="60" as="geometry"/>
                </mxCell>
                <mxCell id="17" style="edgeStyle=none;html=1;exitX=0.473;exitY=-0.023;exitDx=0;exitDy=0;entryX=0;entryY=0.5;entryDx=0;entryDy=0;fontFamily=CMU;fontSource=https%3A%2F%2Ffontlibrary.org%2F%2Fface%2Fcmu-serif;endArrow=classic;endFill=1;exitPerimeter=0;startArrow=none;startFill=0;strokeColor=#009900;strokeWidth=2;dashed=1;" parent="1" source="4" target="16" edge="1">
                    <mxGeometry relative="1" as="geometry">
                        <Array as="points">
                            <mxPoint x="330" y="345"/>
                        </Array>
                    </mxGeometry>
                </mxCell>
                <mxCell id="4" value="Development" style="shape=step;perimeter=stepPerimeter;whiteSpace=wrap;html=1;fixedSize=1;fontFamily=CMU;fontSource=https%3A%2F%2Ffontlibrary.org%2F%2Fface%2Fcmu-serif;fontStyle=1;fillColor=#dae8fc;strokeColor=#6c8ebf;" parent="1" vertex="1">
                    <mxGeometry x="260" y="400" width="150" height="60" as="geometry"/>
                </mxCell>
                <mxCell id="12" style="edgeStyle=none;html=1;exitX=1;exitY=0.5;exitDx=0;exitDy=0;entryX=0;entryY=0.5;entryDx=0;entryDy=0;fontFamily=CMU;fontSource=https%3A%2F%2Ffontlibrary.org%2F%2Fface%2Fcmu-serif;strokeWidth=2;" parent="1" source="5" target="8" edge="1">
                    <mxGeometry relative="1" as="geometry">
                        <Array as="points">
                            <mxPoint x="580" y="430"/>
                            <mxPoint x="580" y="310"/>
                        </Array>
                    </mxGeometry>
                </mxCell>
                <mxCell id="5" value="Testing" style="shape=step;perimeter=stepPerimeter;whiteSpace=wrap;html=1;fixedSize=1;fontFamily=CMU;fontSource=https%3A%2F%2Ffontlibrary.org%2F%2Fface%2Fcmu-serif;fontStyle=1;fillColor=#dae8fc;strokeColor=#6c8ebf;" parent="1" vertex="1">
                    <mxGeometry x="390" y="400" width="150" height="60" as="geometry"/>
                </mxCell>
                <mxCell id="13" style="edgeStyle=none;html=1;exitX=1;exitY=0.5;exitDx=0;exitDy=0;entryX=1;entryY=0.5;entryDx=0;entryDy=0;fontFamily=CMU;fontSource=https%3A%2F%2Ffontlibrary.org%2F%2Fface%2Fcmu-serif;strokeWidth=2;" parent="1" source="8" target="10" edge="1">
                    <mxGeometry relative="1" as="geometry">
                        <Array as="points">
                            <mxPoint x="780" y="310"/>
                            <mxPoint x="780" y="180"/>
                        </Array>
                    </mxGeometry>
                </mxCell>
                <mxCell id="28" style="edgeStyle=none;html=1;exitX=0.5;exitY=0;exitDx=0;exitDy=0;entryX=0.5;entryY=1;entryDx=0;entryDy=0;dashed=1;strokeWidth=2;" edge="1" parent="1" source="8" target="24">
                    <mxGeometry relative="1" as="geometry"/>
                </mxCell>
                <mxCell id="8" value="Deployment" style="shape=step;perimeter=stepPerimeter;whiteSpace=wrap;html=1;fixedSize=1;fontFamily=CMU;fontSource=https%3A%2F%2Ffontlibrary.org%2F%2Fface%2Fcmu-serif;fontStyle=1;fillColor=#ffe6cc;strokeColor=#d79b00;" parent="1" vertex="1">
                    <mxGeometry x="600" y="280" width="150" height="60" as="geometry"/>
                </mxCell>
                <mxCell id="15" style="edgeStyle=none;html=1;entryX=0;entryY=0.5;entryDx=0;entryDy=0;fontFamily=CMU;fontSource=https%3A%2F%2Ffontlibrary.org%2F%2Fface%2Fcmu-serif;strokeWidth=2;" parent="1" source="9" target="2" edge="1">
                    <mxGeometry relative="1" as="geometry">
                        <Array as="points">
                            <mxPoint x="60" y="180"/>
                            <mxPoint x="60" y="310"/>
                        </Array>
                    </mxGeometry>
                </mxCell>
                <mxCell id="9" value="&lt;font&gt;Ideation&lt;/font&gt;" style="shape=hexagon;perimeter=hexagonPerimeter2;whiteSpace=wrap;html=1;fixedSize=1;fontFamily=CMU;fontSource=https%3A%2F%2Ffontlibrary.org%2F%2Fface%2Fcmu-serif;fontStyle=1;fillColor=#d5e8d4;strokeColor=#82b366;fontColor=#000000;" parent="1" vertex="1">
                    <mxGeometry x="220" y="150" width="140" height="60" as="geometry"/>
                </mxCell>
                <mxCell id="14" style="edgeStyle=none;html=1;exitX=0;exitY=0.5;exitDx=0;exitDy=0;fontFamily=CMU;fontSource=https%3A%2F%2Ffontlibrary.org%2F%2Fface%2Fcmu-serif;strokeWidth=2;" parent="1" source="10" target="9" edge="1">
                    <mxGeometry relative="1" as="geometry"/>
                </mxCell>
                <mxCell id="10" value="Review" style="shape=hexagon;perimeter=hexagonPerimeter2;whiteSpace=wrap;html=1;fixedSize=1;fontFamily=CMU;fontSource=https%3A%2F%2Ffontlibrary.org%2F%2Fface%2Fcmu-serif;fontStyle=1;fillColor=#d5e8d4;strokeColor=#82b366;" parent="1" vertex="1">
                    <mxGeometry x="440" y="150" width="140" height="60" as="geometry"/>
                </mxCell>
                <mxCell id="18" style="edgeStyle=none;html=1;exitX=0.5;exitY=0;exitDx=0;exitDy=0;entryX=0.5;entryY=0;entryDx=0;entryDy=0;fontFamily=CMU;fontSource=https%3A%2F%2Ffontlibrary.org%2F%2Fface%2Fcmu-serif;endArrow=classic;endFill=1;strokeColor=#009900;strokeWidth=2;dashed=1;" parent="1" source="16" target="2" edge="1">
                    <mxGeometry relative="1" as="geometry">
                        <Array as="points">
                            <mxPoint x="410" y="250"/>
                            <mxPoint x="155" y="250"/>
                        </Array>
                    </mxGeometry>
                </mxCell>
                <mxCell id="19" style="edgeStyle=none;html=1;exitX=1;exitY=0.5;exitDx=0;exitDy=0;entryX=0.731;entryY=0.01;entryDx=0;entryDy=0;fontFamily=CMU;fontSource=https%3A%2F%2Ffontlibrary.org%2F%2Fface%2Fcmu-serif;endArrow=none;endFill=0;entryPerimeter=0;startArrow=classic;startFill=1;strokeColor=#3333FF;strokeWidth=2;dashed=1;" parent="1" source="16" target="5" edge="1">
                    <mxGeometry relative="1" as="geometry">
                        <Array as="points">
                            <mxPoint x="500" y="345"/>
                        </Array>
                    </mxGeometry>
                </mxCell>
                <mxCell id="22" style="edgeStyle=none;html=1;exitX=0.5;exitY=1;exitDx=0;exitDy=0;entryX=0.75;entryY=0;entryDx=0;entryDy=0;strokeColor=#3333FF;strokeWidth=2;fontFamily=CMU;fontSource=https%3A%2F%2Ffontlibrary.org%2F%2Fface%2Fcmu-serif;startArrow=none;startFill=0;endArrow=classic;endFill=1;dashed=1;" parent="1" source="16" target="4" edge="1">
                    <mxGeometry relative="1" as="geometry">
                        <Array as="points">
                            <mxPoint x="373" y="380"/>
                        </Array>
                    </mxGeometry>
                </mxCell>
                <mxCell id="16" value="Prototype" style="rounded=0;whiteSpace=wrap;html=1;fontFamily=CMU;fontSource=https%3A%2F%2Ffontlibrary.org%2F%2Fface%2Fcmu-serif;fontStyle=2;fillColor=#e1d5e7;strokeColor=#9673a6;" parent="1" vertex="1">
                    <mxGeometry x="350" y="330" width="120" height="30" as="geometry"/>
                </mxCell>
                <mxCell id="20" value="Development Feedback Loop" style="text;html=1;strokeColor=none;fillColor=none;align=center;verticalAlign=middle;whiteSpace=wrap;rounded=0;fontFamily=CMU;fontSource=https%3A%2F%2Ffontlibrary.org%2F%2Fface%2Fcmu-serif;fontStyle=2" parent="1" vertex="1">
                    <mxGeometry x="270" y="280" width="90" height="30" as="geometry"/>
                </mxCell>
                <mxCell id="23" value="Development Testing Loop" style="text;html=1;strokeColor=none;fillColor=none;align=center;verticalAlign=middle;whiteSpace=wrap;rounded=0;fontFamily=CMU;fontSource=https%3A%2F%2Ffontlibrary.org%2F%2Fface%2Fcmu-serif;fontStyle=2" parent="1" vertex="1">
                    <mxGeometry x="400" y="365" width="90" height="30" as="geometry"/>
                </mxCell>
                <mxCell id="27" style="edgeStyle=none;html=1;exitX=0;exitY=0.5;exitDx=0;exitDy=0;entryX=0.5;entryY=1;entryDx=0;entryDy=0;dashed=1;strokeWidth=2;" edge="1" parent="1" source="24" target="10">
                    <mxGeometry relative="1" as="geometry">
                        <Array as="points">
                            <mxPoint x="510" y="235"/>
                        </Array>
                    </mxGeometry>
                </mxCell>
                <mxCell id="24" value="Maintenance" style="rounded=0;whiteSpace=wrap;html=1;fontFamily=CMU;fontSource=https%3A%2F%2Ffontlibrary.org%2F%2Fface%2Fcmu-serif;fontStyle=2;fillColor=#e1d5e7;strokeColor=#9673a6;" vertex="1" parent="1">
                    <mxGeometry x="615" y="220" width="120" height="30" as="geometry"/>
                </mxCell>
            </root>
        </mxGraphModel>
    </diagram>
</mxfile>